<?xml version="1.0" encoding="UTF-8"?>
<svg id="Laag_4" data-name="Laag 4" xmlns="http://www.w3.org/2000/svg" viewBox="0 0 48 48">
  <defs>
    <style>
      .cls-1, .cls-2 {
        fill: #fff;
      }

      .cls-1, .cls-2, .cls-3, .cls-4 {
        stroke: #1d1d1b;
        stroke-linecap: round;
        stroke-linejoin: round;
      }

      .cls-1, .cls-3, .cls-4 {
        stroke-width: 1.5px;
      }

      .cls-2 {
        stroke-width: 3px;
      }

      .cls-3 {
        fill: none;
      }

      .cls-4 {
        fill: #1d1d1b;
      }
    </style>
  </defs>
  <circle class="cls-1" cx="20.35" cy="28.65" r="14.94"/>
  <path class="cls-1" d="M19.37,13.75s2.63-5.08,5.25-4.76v2.37s-.99-.13-5.25,2.39Z"/>
  <path class="cls-1" d="M20.68,11.69s-5.89-.78-4.86-9.05c0,0,5.84,1.37,4.86,9.05Z"/>
  <circle class="cls-4" cx="13.54" cy="21.09" r=".34"/>
  <circle class="cls-4" cx="15.6" cy="17.95" r=".34"/>
  <circle class="cls-4" cx="17.44" cy="21.09" r=".34"/>
  <path class="cls-1" d="M25.92,28.69l8.93-8.67c.39-.38,.36-1.01-.04-1.37-2.13-1.89-4.86-3.1-7.87-3.33-.55-.04-1.02,.37-1.02,.92v12.45"/>
  <path class="cls-1" d="M26.11,28.88l-.19,12.32c0,.61,.51,1.09,1.12,1.05,2.76-.19,5.47-1.23,7.7-3.12,.47-.4,.51-1.11,.08-1.54l-8.71-8.71"/>
  <path class="cls-1" d="M26.21,28.69l12.44,.19c.54,0,.97-.45,.94-1-.17-2.84-1.24-5.63-3.21-7.92-.36-.41-.98-.46-1.37-.07l-8.8,8.8"/>
  <path class="cls-1" d="M26.21,28.88l8.68,8.94c.37,.39,.99,.36,1.35-.04,1.89-2.13,3.12-4.88,3.34-7.9,.04-.54-.37-1-.91-1h-12.46"/>
  <path class="cls-3" d="M25.79,15.2c7.8,0,14.11,6.19,14.11,13.82s-6.32,13.82-14.11,13.82V15.2Z"/>
  <path class="cls-3" d="M25.74,12.36c9.31,0,16.85,7.39,16.85,16.5s-7.54,16.5-16.85,16.5V12.36Z"/>
  <path class="cls-4" d="M25.77,26.93c1.06,0,1.92,.86,1.92,1.92s-.86,1.92-1.92,1.92v-3.84Z"/>
  <line class="cls-2" x1="4.28" y1="4.4" x2="45.44" y2="45.56"/>
  <line class="cls-2" x1="4.28" y1="45.56" x2="45.44" y2="4.4"/>
</svg>