<?xml version="1.0" encoding="UTF-8"?>
<svg id="Laag_4" data-name="Laag 4" xmlns="http://www.w3.org/2000/svg" viewBox="0 0 48 48">
  <defs>
    <style>
      .cls-1 {
        stroke-width: 1.5px;
      }

      .cls-1, .cls-2 {
        fill: #fff;
        stroke: #1d1d1b;
        stroke-linecap: round;
        stroke-linejoin: round;
      }

      .cls-2 {
        stroke-width: 3px;
      }
    </style>
  </defs>
  <polygon class="cls-1" points="34.87 44.33 13.35 44.33 11.43 14.19 36.83 14.19 34.87 44.33"/>
  <path class="cls-1" d="M14.1,9.29h20.13c2.71,0,4.9,2.2,4.9,4.9H9.19c0-2.71,2.2-4.9,4.9-4.9Z"/>
  <path class="cls-1" d="M20.11,3.97h7.34c1.73,0,3.13,1.4,3.13,3.13v2.11h-13.6v-2.11c0-1.73,1.4-3.13,3.13-3.13Z"/>
  <line class="cls-1" x1="24.51" y1="17.52" x2="24.51" y2="40.5"/>
  <line class="cls-1" x1="18.38" y1="17.52" x2="20.04" y2="40.5"/>
  <line class="cls-1" x1="30.57" y1="17.52" x2="28.91" y2="40.5"/>
  <line class="cls-2" x1="3.58" y1="3.42" x2="44.74" y2="44.58"/>
  <line class="cls-2" x1="3.58" y1="44.58" x2="44.74" y2="3.42"/>
</svg>