<?xml version="1.0" encoding="UTF-8"?>
<svg id="Laag_8" data-name="Laag 8" xmlns="http://www.w3.org/2000/svg" viewBox="0 0 48 48">
  <defs>
    <style>
      .cls-1, .cls-2 {
        fill: #fff;
      }

      .cls-2 {
        stroke: #000;
        stroke-linecap: round;
        stroke-linejoin: round;
        stroke-width: 1.5px;
      }
    </style>
  </defs>
  <line class="cls-2" x1="8.17" y1="41.99" x2="40.97" y2="41.99"/>
  <polygon class="cls-1" points="15.68 28.13 20.21 30.87 26.71 29.22 32.34 27.52 34.85 22.17 13.73 23.6 12.9 24 15.68 28.13"/>
  <path class="cls-2" d="M12.79,24.28s2-3.77-4.18-9.24c0,0,6.33,1.66,8.4,7.24,0,0,2.27-3.4-3.94-9.65,0,0,7.29,2.46,9.01,8.37,0,0,.69-5.91-5.47-11.87,0,0,5.91,.2,7.49,6.94,0,0-.49-5.61,6.01-6.06,0,0-3.74,2.22-2.61,9.51,0,0,.64-6.06,6.45-5.86,0,0-4.24,2.36-3.05,9.09,0,0,2.41-9.53,10.07-9.28,0,0-4.92,1.79-6.12,8.7"/>
  <path class="cls-2" d="M12.75,41.74s-.37-7.49-4.14-11.03c0,0,5.39-.64,6.94,5.52,0,0,.47-6.26-4.21-12.26,0,0,4.97-.05,6.8,7.93,0,0-.99-4.88,3.79-8.82,0,0-2.12,6.16-1.18,13.1,0,0-.49-4.78,3.1-10.49,0,0,1.03,6.7,3.05,9.26,0,0,.49-8.18-2.34-13.94,0,0,5,1.67,5.54,10.74,0,0,1.18-9.36,7.24-10.74,0,0-5.02,6.99-4.88,17.29,0,0,1.82-8.67,8.18-7.73,0,0-6.01,3.06-4.73,11.01"/>
</svg>