<?xml version="1.0" encoding="UTF-8"?>
<svg id="Laag_6" data-name="Laag 6" xmlns="http://www.w3.org/2000/svg" viewBox="0 0 48 48">
  <defs>
    <style>
      .cls-1 {
        fill: #fff;
      }

      .cls-1, .cls-2, .cls-3 {
        stroke: #1d1d1b;
        stroke-linecap: round;
        stroke-linejoin: round;
        stroke-width: 1.5px;
      }

      .cls-2 {
        fill: none;
      }

      .cls-3 {
        fill: #1d1d1b;
      }
    </style>
  </defs>
  <path class="cls-1" d="M39.73,13.2l-.27,.17c-.16,.1-.29,.22-.4,.35-4.58-3.26-13.03-2.58-20.76,2.1-7.72,4.68-12.23,11.86-11.46,17.43-.17,.04-.34,.1-.5,.19l-.27,.17c-.78,.48-1.03,1.5-.56,2.28l1.62,2.67c.48,.78,1.5,1.03,2.28,.56l.27-.17c.16-.1,.29-.22,.4-.35,4.58,3.26,13.03,2.58,20.76-2.1s12.23-11.86,11.46-17.43c.17-.04,.34-.1,.5-.19l.27-.17c.78-.48,1.03-1.5,.56-2.28l-1.62-2.67c-.48-.78-1.5-1.03-2.28-.56Z"/>
  <path class="cls-1" d="M8.27,32.75c-4.25-7.02-2.13-16.09,4.74-20.25,6.87-4.17,15.89-1.85,20.15,5.17l-24.89,15.09Z"/>
  <path class="cls-1" d="M20.4,25.03l-10.93-2.85c-.48-.13-.95,.19-1.04,.68-.46,2.54-.12,5.23,1.12,7.67,.22,.44,.77,.62,1.19,.36l9.66-5.85"/>
  <path class="cls-1" d="M20.46,24.79l9.65-5.65c.48-.28,.61-.91,.29-1.36-1.45-2.05-3.53-3.66-6.04-4.51-.53-.18-1.1,.12-1.23,.66l-2.66,10.86"/>
  <path class="cls-1" d="M20.27,24.8l-5.71-9.75c-.25-.43-.81-.54-1.22-.26-2.12,1.47-3.79,3.61-4.64,6.22-.15,.47,.11,.98,.59,1.1l10.97,2.69"/>
  <path class="cls-1" d="M20.41,24.71l2.86-10.94c.12-.47-.19-.94-.67-1.03-2.55-.47-5.25-.13-7.7,1.12-.44,.22-.61,.76-.35,1.18l5.86,9.67"/>
  <path class="cls-2" d="M10,31.33c-3.59-5.93-1.8-13.59,4.01-17.11,5.81-3.52,13.43-1.57,17.02,4.36L10,31.33Z"/>
  <path class="cls-3" d="M19,25.56c-.47-.78-.22-1.79,.56-2.27s1.79-.22,2.27,.56l-2.82,1.71Z"/>
  <circle class="cls-3" cx="15.39" cy="32.63" r=".34"/>
  <circle class="cls-3" cx="17.61" cy="33.46" r=".34"/>
  <circle class="cls-3" cx="31.15" cy="22.28" r=".34"/>
  <circle class="cls-3" cx="33.37" cy="23.11" r=".34"/>
  <circle class="cls-3" cx="33.66" cy="20.75" r=".34"/>
</svg>