<?xml version="1.0" encoding="UTF-8"?>
<svg id="Laag_5" data-name="Laag 5" xmlns="http://www.w3.org/2000/svg" xmlns:xlink="http://www.w3.org/1999/xlink" viewBox="0 0 48 48">
  <defs>
    <style>
      .cls-1, .cls-2 {
        fill: #fff;
      }

      .cls-3 {
        fill: #020000;
      }

      .cls-4 {
        stroke-width: .5px;
      }

      .cls-4, .cls-2, .cls-5 {
        stroke: #1d1d1b;
        stroke-miterlimit: 10;
      }

      .cls-4, .cls-5, .cls-6 {
        fill: #1d1d1b;
      }

      .cls-7 {
        clip-path: url(#clippath);
      }

      .cls-8 {
        fill: none;
      }

      .cls-5 {
        stroke-width: .75px;
      }
    </style>
    <clipPath id="clippath">
      <ellipse class="cls-8" cx="25.13" cy="23.67" rx="21.17" ry="8.16" transform="translate(-8.6 16.31) rotate(-30.97)"/>
    </clipPath>
  </defs>
  <g>
    <g>
      <ellipse class="cls-3" cx="25.05" cy="23.72" rx="21.07" ry="8.12" transform="translate(-8.63 16.27) rotate(-30.97)"/>
      <path class="cls-6" d="M6.66,34.83s-.02-.04-.03-.05c-2.46-4.1,3.7-12.17,14.03-18.37,10.28-6.17,20.26-7.83,22.78-3.79,.01,.02,.02,.04,.03,.05,1.21,2.02,.37,5.06-2.37,8.56-2.65,3.4-6.8,6.88-11.67,9.81-10.28,6.17-20.26,7.83-22.78,3.79ZM42.74,13.04c-2.2-3.53-12.09-1.68-21.66,4.06-9.6,5.76-15.9,13.66-13.75,17.24,0,.01,.02,.03,.03,.04,2.2,3.53,12.09,1.68,21.66-4.06,4.78-2.87,8.85-6.28,11.44-9.61,2.48-3.17,3.32-5.95,2.31-7.63,0-.01-.02-.03-.03-.04Z"/>
    </g>
    <g>
      <g class="cls-7">
        <g>
          <rect class="cls-8" x="46.46" y="15.03" width="7.53" height="5.16" transform="translate(-1.7 29.26) rotate(-31.97)"/>
          <rect class="cls-1" x="47.01" y="15.58" width="6.44" height="4.06" rx=".86" ry=".86" transform="translate(-1.7 29.26) rotate(-31.97)"/>
        </g>
        <g>
          <rect class="cls-8" x="40.07" y="19.02" width="7.53" height="5.16" transform="translate(-4.79 26.48) rotate(-31.97)"/>
          <rect class="cls-1" x="40.62" y="19.56" width="6.44" height="4.06" rx=".86" ry=".86" transform="translate(-4.79 26.48) rotate(-31.97)"/>
        </g>
        <g>
          <rect class="cls-8" x="33.68" y="23.01" width="7.53" height="5.16" transform="translate(-7.87 23.7) rotate(-31.97)"/>
          <rect class="cls-1" x="34.22" y="23.55" width="6.44" height="4.06" rx=".86" ry=".86" transform="translate(-7.87 23.7) rotate(-31.97)"/>
        </g>
        <g>
          <rect class="cls-8" x="27.28" y="26.99" width="7.53" height="5.16" transform="translate(-10.95 20.92) rotate(-31.97)"/>
          <rect class="cls-1" x="27.83" y="27.54" width="6.44" height="4.06" rx=".86" ry=".86" transform="translate(-10.95 20.92) rotate(-31.97)"/>
        </g>
        <g>
          <rect class="cls-8" x="20.89" y="30.98" width="7.53" height="5.16" transform="translate(-14.03 18.14) rotate(-31.97)"/>
          <rect class="cls-1" x="21.44" y="31.53" width="6.44" height="4.06" rx=".86" ry=".86" transform="translate(-14.03 18.14) rotate(-31.97)"/>
        </g>
        <g>
          <rect class="cls-8" x="14.5" y="34.97" width="7.53" height="5.16" transform="translate(-17.11 15.37) rotate(-31.97)"/>
          <rect class="cls-1" x="15.05" y="35.52" width="6.44" height="4.06" rx=".86" ry=".86" transform="translate(-17.11 15.37) rotate(-31.97)"/>
        </g>
        <g>
          <rect class="cls-8" x="8.11" y="38.96" width="7.53" height="5.16" transform="translate(-20.19 12.59) rotate(-31.97)"/>
          <rect class="cls-1" x="8.66" y="39.51" width="6.44" height="4.06" rx=".86" ry=".86" transform="translate(-20.19 12.59) rotate(-31.97)"/>
        </g>
        <g>
          <rect class="cls-8" x="43.73" y="10.65" width="7.53" height="5.16" transform="translate(.2 27.15) rotate(-31.97)"/>
          <rect class="cls-1" x="44.28" y="11.2" width="6.44" height="4.06" rx=".86" ry=".86" transform="translate(.2 27.15) rotate(-31.97)"/>
        </g>
        <g>
          <rect class="cls-8" x="37.34" y="14.64" width="7.53" height="5.16" transform="translate(-2.88 24.37) rotate(-31.97)"/>
          <rect class="cls-1" x="37.89" y="15.19" width="6.44" height="4.06" rx=".86" ry=".86" transform="translate(-2.88 24.37) rotate(-31.97)"/>
        </g>
        <g>
          <rect class="cls-8" x="30.95" y="18.63" width="7.53" height="5.16" transform="translate(-5.96 21.59) rotate(-31.97)"/>
          <rect class="cls-1" x="31.49" y="19.18" width="6.44" height="4.06" rx=".86" ry=".86" transform="translate(-5.96 21.59) rotate(-31.97)"/>
        </g>
        <g>
          <rect class="cls-8" x="24.55" y="22.62" width="7.53" height="5.16" transform="translate(-9.05 18.82) rotate(-31.97)"/>
          <rect class="cls-1" x="25.1" y="23.17" width="6.44" height="4.06" rx=".86" ry=".86" transform="translate(-9.05 18.82) rotate(-31.97)"/>
        </g>
        <g>
          <rect class="cls-8" x="18.16" y="26.61" width="7.53" height="5.16" transform="translate(-12.13 16.04) rotate(-31.97)"/>
          <rect class="cls-1" x="18.71" y="27.16" width="6.44" height="4.06" rx=".86" ry=".86" transform="translate(-12.13 16.04) rotate(-31.97)"/>
        </g>
        <g>
          <rect class="cls-8" x="11.77" y="30.6" width="7.53" height="5.16" transform="translate(-15.21 13.26) rotate(-31.97)"/>
          <rect class="cls-1" x="12.32" y="31.15" width="6.44" height="4.06" rx=".86" ry=".86" transform="translate(-15.21 13.26) rotate(-31.97)"/>
        </g>
        <g>
          <rect class="cls-8" x="5.38" y="34.59" width="7.53" height="5.16" transform="translate(-18.29 10.48) rotate(-31.97)"/>
          <rect class="cls-1" x="5.93" y="35.14" width="6.44" height="4.06" rx=".86" ry=".86" transform="translate(-18.29 10.48) rotate(-31.97)"/>
        </g>
        <g>
          <rect class="cls-8" x="41" y="6.28" width="7.53" height="5.16" transform="translate(2.1 25.04) rotate(-31.97)"/>
          <rect class="cls-1" x="41.55" y="6.83" width="6.44" height="4.06" rx=".86" ry=".86" transform="translate(2.1 25.04) rotate(-31.97)"/>
        </g>
        <g>
          <rect class="cls-8" x="34.61" y="10.27" width="7.53" height="5.16" transform="translate(-.98 22.27) rotate(-31.97)"/>
          <rect class="cls-1" x="35.16" y="10.82" width="6.44" height="4.06" rx=".86" ry=".86" transform="translate(-.98 22.27) rotate(-31.97)"/>
        </g>
        <g>
          <rect class="cls-8" x="28.22" y="14.26" width="7.53" height="5.16" transform="translate(-4.06 19.49) rotate(-31.97)"/>
          <rect class="cls-1" x="28.77" y="14.81" width="6.44" height="4.06" rx=".86" ry=".86" transform="translate(-4.06 19.49) rotate(-31.97)"/>
        </g>
        <g>
          <rect class="cls-8" x="21.83" y="18.25" width="7.53" height="5.16" transform="translate(-7.14 16.71) rotate(-31.97)"/>
          <rect class="cls-1" x="22.37" y="18.8" width="6.44" height="4.06" rx=".86" ry=".86" transform="translate(-7.14 16.71) rotate(-31.97)"/>
        </g>
        <g>
          <rect class="cls-8" x="15.43" y="22.24" width="7.53" height="5.16" transform="translate(-10.23 13.93) rotate(-31.97)"/>
          <rect class="cls-1" x="15.98" y="22.78" width="6.44" height="4.06" rx=".86" ry=".86" transform="translate(-10.23 13.93) rotate(-31.97)"/>
        </g>
        <g>
          <rect class="cls-8" x="9.04" y="26.23" width="7.53" height="5.16" transform="translate(-13.31 11.15) rotate(-31.97)"/>
          <rect class="cls-1" x="9.59" y="26.77" width="6.44" height="4.06" rx=".86" ry=".86" transform="translate(-13.31 11.15) rotate(-31.97)"/>
        </g>
        <g>
          <rect class="cls-8" x="2.65" y="30.21" width="7.53" height="5.16" transform="translate(-16.39 8.37) rotate(-31.97)"/>
          <rect class="cls-1" x="3.2" y="30.76" width="6.44" height="4.06" rx=".86" ry=".86" transform="translate(-16.39 8.37) rotate(-31.97)"/>
        </g>
        <g>
          <rect class="cls-8" x="38.27" y="1.91" width="7.53" height="5.16" transform="translate(4 22.94) rotate(-31.97)"/>
          <rect class="cls-1" x="38.82" y="2.46" width="6.44" height="4.06" rx=".86" ry=".86" transform="translate(4 22.94) rotate(-31.97)"/>
        </g>
        <g>
          <rect class="cls-8" x="31.88" y="5.9" width="7.53" height="5.16" transform="translate(.92 20.16) rotate(-31.97)"/>
          <rect class="cls-1" x="32.43" y="6.44" width="6.44" height="4.06" rx=".86" ry=".86" transform="translate(.92 20.16) rotate(-31.97)"/>
        </g>
        <g>
          <rect class="cls-8" x="25.49" y="9.88" width="7.53" height="5.16" transform="translate(-2.16 17.38) rotate(-31.97)"/>
          <rect class="cls-1" x="26.04" y="10.43" width="6.44" height="4.06" rx=".86" ry=".86" transform="translate(-2.16 17.38) rotate(-31.97)"/>
        </g>
        <g>
          <rect class="cls-8" x="19.1" y="13.87" width="7.53" height="5.16" transform="translate(-5.24 14.6) rotate(-31.97)"/>
          <rect class="cls-1" x="19.64" y="14.42" width="6.44" height="4.06" rx=".86" ry=".86" transform="translate(-5.24 14.6) rotate(-31.97)"/>
        </g>
        <g>
          <rect class="cls-8" x="12.7" y="17.86" width="7.53" height="5.16" transform="translate(-8.32 11.82) rotate(-31.97)"/>
          <rect class="cls-1" x="13.25" y="18.41" width="6.44" height="4.06" rx=".86" ry=".86" transform="translate(-8.32 11.82) rotate(-31.97)"/>
        </g>
        <g>
          <rect class="cls-8" x="6.31" y="21.85" width="7.53" height="5.16" transform="translate(-11.41 9.04) rotate(-31.97)"/>
          <rect class="cls-1" x="6.86" y="22.4" width="6.44" height="4.06" rx=".86" ry=".86" transform="translate(-11.41 9.04) rotate(-31.97)"/>
        </g>
        <g>
          <rect class="cls-8" x="-.08" y="25.84" width="7.53" height="5.16" transform="translate(-14.49 6.26) rotate(-31.97)"/>
          <rect class="cls-1" x=".47" y="26.39" width="6.44" height="4.06" rx=".86" ry=".86" transform="translate(-14.49 6.26) rotate(-31.97)"/>
        </g>
      </g>
      <path class="cls-4" d="M6.66,34.83s-.02-.04-.03-.05c-1.21-2.02-.37-5.08,2.38-8.6,2.67-3.42,6.83-6.92,11.72-9.85s9.94-4.96,14.21-5.71c4.4-.77,7.51-.03,8.71,1.95,1.21,2.02,.37,5.08-2.38,8.6-2.67,3.42-6.83,6.91-11.72,9.85-4.89,2.93-9.94,4.96-14.2,5.71-4.36,.76-7.44,.09-8.67-1.89ZM42.91,12.95c-1.03-1.66-3.88-2.21-7.84-1.52-4.17,.73-9.12,2.72-13.92,5.6-4.81,2.88-8.89,6.31-11.49,9.65-2.49,3.19-3.33,5.98-2.32,7.67,0,.01,.02,.03,.02,.04,1.03,1.66,3.88,2.21,7.84,1.52,4.17-.73,9.12-2.72,13.92-5.6,4.81-2.88,8.89-6.31,11.49-9.65,2.49-3.19,3.33-5.98,2.32-7.67,0-.01-.02-.03-.02-.04Z"/>
    </g>
  </g>
  <g>
    <path class="cls-2" d="M21.27,14.05l-10.31,7.62c-2.66,1.97-4.58,4.99-4.92,8.24-.26,2.51,.4,4.64,2.01,5.69,1.61,1.05,3.83,.79,6.02-.47,2.84-1.63,4.82-4.61,5.54-7.84l2.78-12.51c.16-.7-.55-1.16-1.13-.73Z"/>
    <path class="cls-5" d="M6.49,34.56c-.74-1.19-1.05-2.82-.86-4.69,.34-3.24,2.24-6.43,5.08-8.53l10.31-7.62h0c.4-.3,.91-.32,1.31-.07,.39,.25,.58,.73,.47,1.22l-2.78,12.51c-.77,3.45-2.91,6.48-5.74,8.11-2.41,1.38-4.76,1.55-6.45,.45-.54-.35-.99-.82-1.34-1.38ZM21.51,14.38l-10.31,7.62c-2.66,1.97-4.44,4.94-4.75,7.96-.25,2.45,.41,4.38,1.83,5.3s3.45,.75,5.59-.48c2.63-1.51,4.63-4.34,5.35-7.57l2.78-12.51c.03-.15,0-.28-.11-.35-.11-.07-.24-.05-.37,.04h0Z"/>
  </g>
  <g>
    <path class="cls-1" d="M32.07,31.36l-11.37,5.92c-2.94,1.53-6.49,1.92-9.57,.8-2.37-.87-3.99-2.4-4.23-4.31-.23-1.91,.97-3.79,3.06-5.2,2.71-1.84,6.26-2.31,9.48-1.54l12.46,3c.69,.17,.8,1.01,.16,1.34Z"/>
    <path class="cls-5" d="M7.15,35.63c-.35-.56-.57-1.17-.65-1.82-.24-2,.94-4.03,3.24-5.59,2.7-1.83,6.36-2.42,9.8-1.6l12.46,3c.48,.12,.84,.49,.89,.96,.06,.47-.19,.91-.63,1.14h0l-11.37,5.92c-3.14,1.63-6.84,1.94-9.9,.82-1.77-.65-3.1-1.64-3.84-2.83Zm24.89-5.06c-.04-.07-.12-.12-.23-.15l-12.46-3c-3.22-.77-6.64-.22-9.15,1.48-2.04,1.38-3.09,3.13-2.88,4.81,.2,1.68,1.65,3.13,3.96,3.97,2.85,1.04,6.3,.75,9.24-.77l11.37-5.92c.14-.07,.21-.19,.2-.31,0-.04-.02-.08-.04-.11Zm.03,.79h0s0,0,0,0Z"/>
  </g>
</svg>