<?xml version="1.0" encoding="UTF-8"?>
<svg id="Laag_7" data-name="Laag 7" xmlns="http://www.w3.org/2000/svg" viewBox="0 0 48 48">
  <defs>
    <style>
      .cls-1 {
        fill: #fff;
        stroke: #000;
      }

      .cls-1, .cls-2 {
        stroke-linecap: round;
        stroke-linejoin: round;
        stroke-width: 1.5px;
      }

      .cls-2 {
        fill: none;
        stroke: #1d1d1b;
      }
    </style>
  </defs>
  <line class="cls-2" x1="6.38" y1="33.98" x2="33.54" y2="18.05"/>
  <path class="cls-1" d="M33.64,18.07s2.11-6.78,8.95-5.33c0,0-.61,5.76-8.95,5.33Z"/>
  <path class="cls-1" d="M28.64,21.09s5.27-4.76,10.42-.02c0,0-3.46,4.65-10.42,.02Z"/>
  <path class="cls-1" d="M28.51,20.86s6.73-2.28,5.1-9.09c0,0-5.75,.76-5.1,9.09Z"/>
  <path class="cls-1" d="M23.46,24.11s5.27-4.76,10.42-.02c0,0-3.46,4.65-10.42,.02Z"/>
  <path class="cls-1" d="M23.33,23.89s6.73-2.28,5.1-9.09c0,0-5.75,.76-5.1,9.09Z"/>
  <path class="cls-1" d="M18.19,27.22s5.27-4.76,10.42-.02c0,0-3.46,4.65-10.42,.02Z"/>
  <path class="cls-1" d="M18.06,26.99s6.73-2.28,5.1-9.09c0,0-5.75,.76-5.1,9.09Z"/>
  <path class="cls-1" d="M12.96,30.29s5.27-4.76,10.42-.02c0,0-3.46,4.65-10.42,.02Z"/>
  <path class="cls-1" d="M12.83,30.06s6.73-2.28,5.1-9.09c0,0-5.75,.76-5.1,9.09Z"/>
  <path class="cls-1" d="M7.75,33.33s5.27-4.76,10.42-.02c0,0-3.46,4.65-10.42,.02Z"/>
  <path class="cls-1" d="M7.62,33.11s6.73-2.28,5.1-9.09c0,0-5.75,.76-5.1,9.09Z"/>
  <line class="cls-1" x1="39.06" y1="21.07" x2="41.52" y2="19.63"/>
  <line class="cls-1" x1="33.61" y1="11.78" x2="36.07" y2="10.33"/>
</svg>