<?xml version="1.0" encoding="UTF-8"?>
<svg id="Laag_4" data-name="Laag 4" xmlns="http://www.w3.org/2000/svg" viewBox="0 0 48 48">
  <defs>
    <style>
      .cls-1 {
        fill: #fff;
      }

      .cls-1, .cls-2, .cls-3 {
        stroke: #1d1d1b;
        stroke-linecap: round;
        stroke-linejoin: round;
        stroke-width: 1.5px;
      }

      .cls-2 {
        fill: none;
      }

      .cls-3 {
        fill: #1d1d1b;
      }
    </style>
  </defs>
  <circle class="cls-1" cx="20.86" cy="28.27" r="14.94"/>
  <path class="cls-1" d="M19.89,13.36s2.63-5.08,5.25-4.76v2.37s-.99-.13-5.25,2.39Z"/>
  <path class="cls-1" d="M21.19,11.3s-5.89-.78-4.86-9.05c0,0,5.84,1.37,4.86,9.05Z"/>
  <circle class="cls-3" cx="14.05" cy="20.7" r=".34"/>
  <circle class="cls-3" cx="16.12" cy="17.56" r=".34"/>
  <circle class="cls-3" cx="17.95" cy="20.7" r=".34"/>
  <path class="cls-1" d="M26.43,28.3l8.93-8.67c.39-.38,.36-1.01-.04-1.37-2.13-1.89-4.86-3.1-7.87-3.33-.55-.04-1.02,.37-1.02,.92v12.45"/>
  <path class="cls-1" d="M26.62,28.49l-.19,12.32c0,.61,.51,1.09,1.12,1.05,2.76-.19,5.47-1.23,7.7-3.12,.47-.4,.51-1.11,.08-1.54l-8.71-8.71"/>
  <path class="cls-1" d="M26.72,28.31l12.44,.19c.54,0,.97-.45,.94-1-.17-2.84-1.24-5.63-3.21-7.92-.36-.41-.98-.46-1.37-.07l-8.8,8.8"/>
  <path class="cls-1" d="M26.73,28.49l8.68,8.94c.37,.39,.99,.36,1.35-.04,1.89-2.13,3.12-4.88,3.34-7.9,.04-.54-.37-1-.91-1h-12.46"/>
  <path class="cls-2" d="M26.31,14.81c7.8,0,14.11,6.19,14.11,13.82s-6.32,13.82-14.11,13.82V14.81Z"/>
  <path class="cls-2" d="M26.25,11.98c9.31,0,16.85,7.39,16.85,16.5s-7.54,16.5-16.85,16.5V11.98Z"/>
  <path class="cls-3" d="M26.29,26.55c1.06,0,1.92,.86,1.92,1.92s-.86,1.92-1.92,1.92v-3.84Z"/>
</svg>