<?xml version="1.0" encoding="UTF-8"?>
<svg id="Laag_2" data-name="Laag 2" xmlns="http://www.w3.org/2000/svg" viewBox="0 0 48 48">
  <defs>
    <style>
      .cls-1 {
        fill: #fff;
      }

      .cls-1, .cls-2 {
        stroke: #1d1d1b;
        stroke-linecap: round;
        stroke-linejoin: round;
        stroke-width: 1.5px;
      }

      .cls-2 {
        fill: #1d1d1b;
      }
    </style>
  </defs>
  <circle class="cls-1" cx="16.98" cy="23.55" r="3.91"/>
  <circle class="cls-1" cx="20.93" cy="31.08" r="3.91"/>
  <g>
    <path class="cls-2" d="M15.15,30.05s0,.02,.01,.02c.01,.03,.03,.05,.05,.08-.02-.03-.04-.07-.06-.1Z"/>
    <path class="cls-2" d="M29.91,22.26c-2.42-4.6-7.69-6.6-11.77-4.45-2.06,1.08-3.11,2.63-3.64,4.87,.18-.28,.08-.12,.36-.26,1.61-.85,4.33,1.16,6.08,4.48s1.85,6.7,.24,7.54c-.36,.19,1.49,1.52-.87,.84,2.25,1,4.41,.35,6.6-.8,4.08-2.14,5.42-7.61,3-12.22Z"/>
  </g>
  <path class="cls-1" d="M26.6,30.75l2.22,.51c.06-2.31-3.08-4.33-3.64-4.6l5.76-3.59-1.17-2.22-6.15,2.41c.12-1.02-.4-3.96-2.05-5.04l-.48,2.05s1.01,2.19-.11,4.03L4.82,30.63l3.46,6.58,13.96-8.71c2.64-.41,4.37,2.25,4.37,2.25Z"/>
  <ellipse class="cls-1" cx="38.89" cy="29" rx="4.77" ry="3.88" transform="translate(8.38 66.71) rotate(-87.73)"/>
  <ellipse class="cls-1" cx="29.67" cy="10.32" rx="3.88" ry="4.77" transform="translate(5.1 29.89) rotate(-57.73)"/>
  <path class="cls-1" d="M22.71,8.89c-.14,.08-.26,.18-.4,.26-.08-.25-.17-.49-.29-.73-1.24-2.36-4.16-3.27-6.53-2.03s-3.27,4.16-2.03,6.53c.12,.23,.27,.43,.42,.63-2.41,1.39-3.32,4.43-2.02,6.92s4.49,3.52,7.03,2.19c1.99-1.05,3-3.2,2.72-5.31,1.58,1.45,3.95,1.85,5.96,.8,2.56-1.34,3.54-4.5,2.19-7.06s-4.5-3.54-7.06-2.19Z"/>
  <path class="cls-1" d="M36.59,35.31c-.14,.08-.29,.12-.44,.18,.16,.21,.31,.42,.43,.66,1.24,2.36,.33,5.28-2.03,6.53s-5.28,.33-6.53-2.03c-.12-.23-.2-.47-.28-.7-2.51,1.2-5.54,.22-6.84-2.26s-.36-5.69,2.19-7.03c1.99-1.05,4.34-.66,5.91,.77-.3-2.13,.71-4.3,2.72-5.36,2.56-1.34,5.72-.36,7.06,2.19,1.34,2.56,.36,5.72-2.19,7.06Z"/>
  <path class="cls-1" d="M34.13,34.53c-2.58-.67-5.22,.88-5.89,3.46"/>
  <path class="cls-1" d="M40.13,22.31c-.08-.14-.18-.26-.26-.4,.25-.08,.49-.17,.73-.29,2.36-1.24,3.27-4.16,2.03-6.53s-4.16-3.27-6.53-2.03c-.23,.12-.43,.27-.63,.42-1.39-2.41-4.43-3.32-6.92-2.02s-3.52,4.49-2.19,7.03c1.05,1.99,3.2,3,5.31,2.72-1.45,1.58-1.85,3.95-.8,5.96,1.34,2.56,4.5,3.54,7.06,2.19s3.54-4.5,2.19-7.06Z"/>
  <path class="cls-1" d="M33.81,15.67c.92-2.5,3.7-3.78,6.21-2.86s3.78,3.7,2.86,6.21-3.7,3.78-6.21,2.86"/>
  <path class="cls-1" d="M15.86,14.39c2.52,.88,5.27-.46,6.15-2.98"/>
</svg>