<?xml version="1.0" encoding="UTF-8"?>
<svg id="Laag_10" data-name="Laag 10" xmlns="http://www.w3.org/2000/svg" viewBox="0 0 48 48">
  <defs>
    <style>
      .cls-1 {
        fill: #fff;
        stroke: #1d1d1b;
        stroke-linecap: round;
        stroke-linejoin: round;
        stroke-width: 1.5px;
      }
    </style>
  </defs>
  <ellipse class="cls-1" cx="24" cy="27.38" rx="16.68" ry="15.44"/>
  <path class="cls-1" d="M20.99,11.4c-.53-.12-1.08-.11-1.61,.04-.83,.23-2.02,.65-2.53,1.27-.82,.99-3.45,1.15-4.93,0,0,0,2.59,4.4,6.78,3.29,0,0-2.51,3.08,.66,4.93,0,0,1.52-4.03,4.44-4.48,0,0,1.73,4.44,4.4,4.81s.99-5.83,.99-5.83c0,0,6.29,2.92,8.3-1.81,0,0-3.16,2.42-5.05-.45s-5.51-1.52-5.51-1.52c0,0-2.92-4.11-.9-7.03l-3.37-.16s-3.2,5.83-.29,7.27l-1.37-.32Z"/>
  <path class="cls-1" d="M35.87,21.57s3.91,5.08,.87,10.76"/>
  <circle class="cls-1" cx="34.17" cy="19.87" r=".21"/>
</svg>