<?xml version="1.0" encoding="UTF-8"?>
<svg id="Laag_13" data-name="Laag 13" xmlns="http://www.w3.org/2000/svg" viewBox="0 0 48 48">
  <defs>
    <style>
      .cls-1, .cls-2, .cls-3, .cls-4 {
        fill: #fff;
      }

      .cls-1, .cls-3, .cls-4, .cls-5 {
        stroke: #1d1d1b;
        stroke-width: 1.5px;
      }

      .cls-1, .cls-3, .cls-5 {
        stroke-linecap: round;
      }

      .cls-1, .cls-5 {
        stroke-linejoin: round;
      }

      .cls-3, .cls-4 {
        stroke-miterlimit: 10;
      }

      .cls-5 {
        fill: none;
      }
    </style>
  </defs>
  <path class="cls-4" d="M43.11,25.47c0-2.1-1.01-3.95-2.56-5.13,.52-2.28-.7-4.65-2.96-5.48-.35-.13-.69-.2-1.04-.24-.1-2.15-1.46-4.13-3.6-4.91-1.15-.42-2.35-.43-3.44-.11-.95-2.37-3.26-4.05-5.97-4.05-2.22,0-4.19,1.13-5.34,2.85-.21-.02-.41-.04-.62-.04-3.06,0-5.55,2.46-5.6,5.51-2.42,.12-4.36,2.1-4.36,4.56,0,.57,.12,1.12,.31,1.62-1.79,1.14-2.98,3.14-2.98,5.42,0,3.55,2.88,6.44,6.44,6.44h25.89v-.03c3.28-.3,5.85-3.05,5.85-6.41Z"/>
  <g>
    <path class="cls-3" d="M11.37,31.91c-3.55,0-6.44-2.88-6.44-6.44s2.88-6.44,6.44-6.44"/>
    <path class="cls-3" d="M23.53,5.55c3.55,0,6.44,2.88,6.44,6.44"/>
    <path class="cls-5" d="M12.6,16.57c-1.44-2.74-.38-6.13,2.36-7.56s6.13-.38,7.56,2.36"/>
    <path class="cls-1" d="M32.94,9.71c2.85,1.04,4.32,4.2,3.27,7.06"/>
    <path class="cls-1" d="M36.67,19.23c3.55,0,6.44,2.88,6.44,6.44"/>
    <path class="cls-1" d="M18.98,28.09c-2.38,0-4.3-1.93-4.3-4.3"/>
    <path class="cls-1" d="M21.96,19.99c-.33-2.78,1.66-5.29,4.44-5.62"/>
    <ellipse class="cls-2" cx="21.27" cy="18.74" rx="2.89" ry="3.15"/>
    <path class="cls-1" d="M19.09,15.02c2.77-.4,5.33,1.52,5.73,4.29"/>
    <path class="cls-1" d="M29.62,20.98c1.81,.91,2.55,3.11,1.64,4.93"/>
    <path class="cls-1" d="M28.57,24.35c1.48-1.39,3.8-1.31,5.19,.17"/>
    <ellipse class="cls-2" cx="31.17" cy="27.02" rx="2.89" ry="3.15"/>
    <path class="cls-1" d="M19.87,35.24s1.52,5.29,0,6.81h6.88s-1.24-2.22-.35-7.08"/>
    <path class="cls-1" d="M14.98,31.91s-9.07-.9-12.4-5.12c0,0-.45,11.43,14.24,9.34"/>
    <path class="cls-1" d="M28.72,31.08s9.77,2.38,16.74-3.74c0,0-.47,12.65-17.68,7.56"/>
    <path class="cls-1" d="M12.2,26.79s1.61,13.81,11.98,9.34c0,0,9.52,3.86,8.71-8.67,0,0-9.11,9.2-20.69-.67Z"/>
  </g>
</svg>